<?xml version="1.0" encoding="iso-8859-1"?>
<!-- Uploaded to: SVG Repo, www.svgrepo.com, Generator: SVG Repo Mixer Tools -->
<svg version="1.1" id="Layer_1" xmlns="http://www.w3.org/2000/svg" xmlns:xlink="http://www.w3.org/1999/xlink" 
	 viewBox="0 0 512 512" xml:space="preserve">
<rect x="13.89" y="57.368" style="fill:#767B95;" width="484.221" height="397.266"/>
<circle style="fill:#7BFFCD;" cx="145.086" cy="181.201" r="78.924"/>
<path d="M145.081,274.014c-51.178,0-92.814-41.637-92.814-92.814s41.637-92.814,92.814-92.814s92.813,41.637,92.813,92.814
	S196.259,274.014,145.081,274.014z M145.081,116.166c-35.86,0-65.034,29.174-65.034,65.034s29.174,65.034,65.034,65.034
	s65.032-29.174,65.032-65.034S180.941,116.166,145.081,116.166z"/>
<path style="fill:#7BFFCD;" d="M145.081,150.892c16.712,0,30.306,13.596,30.306,30.308"/>
<path d="M175.388,195.09c-7.672,0-13.89-6.219-13.89-13.89c0-9.052-7.365-16.417-16.416-16.417c-7.672,0-13.89-6.219-13.89-13.89
	s6.219-13.89,13.89-13.89c24.371,0,44.197,19.827,44.197,44.198C189.278,188.872,183.059,195.09,175.388,195.09z"/>
<circle style="fill:#7BFFCD;" cx="366.916" cy="181.201" r="78.924"/>
<path d="M366.919,274.014c-51.178,0-92.813-41.637-92.813-92.814s41.637-92.814,92.813-92.814c51.178,0,92.814,41.637,92.814,92.814
	S418.096,274.014,366.919,274.014z M366.919,116.166c-35.86,0-65.032,29.174-65.032,65.034s29.173,65.034,65.032,65.034
	s65.034-29.174,65.034-65.034S402.778,116.166,366.919,116.166z"/>
<path style="fill:#7BFFCD;" d="M366.919,150.892c16.712,0,30.306,13.596,30.306,30.308"/>
<path d="M397.226,195.09c-7.672,0-13.89-6.219-13.89-13.89c0-9.052-7.365-16.417-16.416-16.417c-7.672,0-13.89-6.219-13.89-13.89
	s6.219-13.89,13.89-13.89c24.371,0,44.197,19.827,44.197,44.198C411.117,188.872,404.898,195.09,397.226,195.09z"/>
<rect x="66.799" y="299.756" style="fill:#FF5050;" width="52.327" height="45.606"/>
<path d="M119.122,359.253H66.795c-7.672,0-13.89-6.219-13.89-13.89v-45.606c0-7.672,6.219-13.89,13.89-13.89h52.327
	c7.672,0,13.89,6.219,13.89,13.89v45.606C133.012,353.034,126.793,359.253,119.122,359.253z M80.685,331.472h24.546v-17.826H80.685
	V331.472z"/>
<rect x="175.492" y="299.756" style="fill:#FF5050;" width="52.327" height="45.606"/>
<path d="M227.816,359.253h-52.327c-7.672,0-13.89-6.219-13.89-13.89v-45.606c0-7.672,6.219-13.89,13.89-13.89h52.327
	c7.672,0,13.89,6.219,13.89,13.89v45.606C241.706,353.034,235.487,359.253,227.816,359.253z M189.379,331.472h24.546v-17.826
	h-24.546V331.472z"/>
<rect x="284.184" y="299.756" style="fill:#FF5050;" width="52.327" height="45.606"/>
<path d="M336.511,359.253h-52.327c-7.672,0-13.89-6.219-13.89-13.89v-45.606c0-7.672,6.219-13.89,13.89-13.89h52.327
	c7.672,0,13.89,6.219,13.89,13.89v45.606C350.401,353.034,344.183,359.253,336.511,359.253z M298.073,331.472h24.546v-17.826
	h-24.546V331.472z"/>
<rect x="392.877" y="299.756" style="fill:#FF5050;" width="52.327" height="45.606"/>
<path d="M445.205,359.253h-52.328c-7.672,0-13.89-6.219-13.89-13.89v-45.606c0-7.672,6.219-13.89,13.89-13.89h52.327
	c7.672,0,13.89,6.219,13.89,13.89v45.606C459.095,353.034,452.877,359.253,445.205,359.253z M406.767,331.472h24.546v-17.826
	h-24.546V331.472z"/>
<path d="M498.11,43.476H13.89C6.219,43.476,0,49.695,0,57.367v397.266c0,7.672,6.219,13.89,13.89,13.89H498.11
	c7.672,0,13.89-6.219,13.89-13.89V57.367C512,49.695,505.781,43.476,498.11,43.476z M484.219,440.743H27.781v-26.392h320.272
	c7.672,0,13.89-6.219,13.89-13.89s-6.219-13.89-13.89-13.89H27.781V71.257h456.438V440.743z"/>
<path d="M389.723,414.351c-0.903,0-1.82-0.097-2.709-0.278c-0.889-0.167-1.764-0.445-2.598-0.792
	c-0.847-0.347-1.653-0.778-2.403-1.278c-0.764-0.5-1.472-1.083-2.111-1.722s-1.222-1.347-1.722-2.111
	c-0.5-0.75-0.931-1.556-1.278-2.403c-0.347-0.833-0.611-1.709-0.792-2.598c-0.181-0.889-0.278-1.806-0.278-2.709
	c0-0.903,0.097-1.82,0.278-2.709c0.181-0.889,0.444-1.764,0.792-2.598c0.347-0.847,0.778-1.653,1.278-2.403
	c0.5-0.764,1.083-1.472,1.722-2.111s1.347-1.222,2.111-1.722c0.75-0.5,1.556-0.931,2.403-1.278c0.833-0.347,1.709-0.625,2.598-0.792
	c1.792-0.361,3.625-0.361,5.431,0c0.875,0.167,1.75,0.445,2.598,0.792c0.833,0.347,1.639,0.778,2.389,1.278
	c0.764,0.5,1.472,1.083,2.111,1.722s1.222,1.347,1.722,2.111c0.514,0.75,0.931,1.556,1.278,2.403
	c0.361,0.833,0.625,1.709,0.806,2.598c0.181,0.889,0.264,1.806,0.264,2.709c0,0.903-0.083,1.82-0.264,2.709
	s-0.445,1.764-0.806,2.598c-0.347,0.847-0.764,1.653-1.278,2.403c-0.5,0.764-1.083,1.472-1.722,2.111s-1.347,1.222-2.111,1.722
	c-0.75,0.5-1.556,0.931-2.389,1.278c-0.847,0.347-1.722,0.625-2.598,0.792C391.542,414.254,390.625,414.351,389.723,414.351z"/>
</svg>